<svg width="21" height="21" viewBox="0 0 21 21" fill="none" xmlns="http://www.w3.org/2000/svg">
<g clip-path="url(#clip0_820_1535)">
<path d="M10.4434 5.85343C13.6017 5.85343 16.4184 7.62843 17.7934 10.4368C16.4184 13.2451 13.6017 15.0201 10.4434 15.0201C7.28507 15.0201 4.4684 13.2451 3.0934 10.4368C4.4684 7.62843 7.28507 5.85343 10.4434 5.85343ZM10.4434 4.18677C6.27673 4.18677 2.7184 6.77843 1.27673 10.4368C2.7184 14.0951 6.27673 16.6868 10.4434 16.6868C14.6101 16.6868 18.1684 14.0951 19.6101 10.4368C18.1684 6.77843 14.6101 4.18677 10.4434 4.18677ZM10.4434 8.35343C11.5934 8.35343 12.5267 9.28677 12.5267 10.4368C12.5267 11.5868 11.5934 12.5201 10.4434 12.5201C9.2934 12.5201 8.36007 11.5868 8.36007 10.4368C8.36007 9.28677 9.2934 8.35343 10.4434 8.35343ZM10.4434 6.68677C8.37673 6.68677 6.6934 8.3701 6.6934 10.4368C6.6934 12.5034 8.37673 14.1868 10.4434 14.1868C12.5101 14.1868 14.1934 12.5034 14.1934 10.4368C14.1934 8.3701 12.5101 6.68677 10.4434 6.68677Z" fill="#2A2A2A"/>
</g>
<defs>
<clipPath id="clip0_820_1535">
<rect width="20" height="20" fill="white" transform="translate(0.443359 0.853516)"/>
</clipPath>
</defs>
</svg>
